# This file uses centimeters as units for non-parametric coordinates.

v 2.565667 -0.000002 -1.486792
v 0.719182 -0.000002 -5.921311
v 2.143662 -0.000002 -3.795666
v -2.807062 -0.000002 -0.236758
v 2.139989 -0.000002 1.035111
v 2.451369 -0.000002 4.109038
v 2.022849 -0.000002 4.999219
v -0.731316 -0.000002 5.502613
v -1.499081 -0.000002 0.099519
v -1.687440 -0.000002 4.552878
v -1.618303 -0.000002 2.918251
v -2.546552 -0.000002 1.188542
v -1.641157 -0.000002 -3.334181
v -0.771901 -0.000002 -5.648778
v -2.153071 -0.000002 -0.068620
v -2.320260 -0.000002 -1.919989
v -3.032809 -0.000002 -1.471864
v -2.082427 -0.000002 2.053397
v -1.553164 -0.000002 -1.207580
v -2.236665 -0.000002 -0.994304
v -2.919936 -0.000002 -0.854311
v -2.236665 1.393522 -0.994304
v -2.919936 1.393523 -0.854311
v -2.807062 1.393523 -0.236758
v -2.153071 1.393522 -0.068620
v -2.546552 1.393523 1.188542
v -2.082427 1.393523 2.053397
v -1.641157 1.393523 -3.334181
v -0.771901 1.393523 -5.648778
v 2.143662 1.393523 -3.795666
v 0.719182 1.393523 -5.921311
v 2.565667 1.393523 -1.486792
v -1.553164 1.393522 -1.207580
v -2.320260 1.393523 -1.919989
v -3.032809 1.393523 -1.471864
v -1.499081 1.393522 0.099519
v 2.139989 1.393523 1.035111
v 2.451369 1.393523 4.109038
v -1.618303 1.393523 2.918251
v -1.687440 1.393523 4.552878
v -0.731316 1.393523 5.502613
v 2.022849 1.393523 4.999219
vt 0.430157 1.000000
vt 0.215078 1.000000
vt 0.000000 0.815047
vt 0.454317 0.000000
vt 0.650472 0.841709
vt 0.932691 0.796994
vt 1.005873 0.691441
vt 1.005873 0.183305
vt 0.506180 0.222545
vt 0.904509 0.043596
vt 0.758300 0.109280
vt 0.587088 -0.000000
vt 0.194320 0.309226
vt 0.000000 0.539946
vt 0.480249 0.111272
vt 0.310609 0.141837
vt 0.339264 0.000000
vt 0.672694 0.054640
vt 0.387465 0.255542
vt 0.395429 0.126555
vt 0.396791 0.000000
vt 0.805783 0.890292
vt 0.807713 0.890292
vt 0.792614 0.890292
vt 0.790008 0.890292
vt 0.798628 0.890292
vt 0.809344 0.890292
vt 0.839600 0.890292
vt 0.874024 0.890292
vt 0.906911 0.890292
vt 0.819531 0.890292
vt 0.821563 0.890292
vt 0.916654 0.890292
vt 0.803853 0.890292
vt 0.787402 0.890292
vt 0.822811 0.890292
vt 0.914015 0.890292
vt 0.820059 0.890292
vt 0.906826 0.890292
vt 0.904122 0.890292
vt 0.840537 0.890292
vt 0.818463 0.890292
vt 0.396791 0.000000
vt 0.454317 0.000000
vt 0.587088 -0.000000
vt 0.672694 0.054640
vt 0.000000 0.539946
vt 0.194320 0.309226
vt 0.215078 1.000000
vt 0.000000 0.815047
vt 0.430157 1.000000
vt 0.310609 0.141837
vt 0.339264 0.000000
vt 0.932691 0.796994
vt 0.650472 0.841709
vt 0.758300 0.109280
vt 0.904509 0.043596
vt 1.005873 0.183305
vt 1.005873 0.691441
vn 0.000001 1.000000 -0.000000
vn 0.000001 1.000000 -0.000000
vn 0.000001 1.000000 -0.000000
vn 0.000001 1.000000 -0.000000
vn 0.000000 1.000000 -0.000000
vn 0.000000 1.000000 -0.000000
vn 0.000000 1.000000 -0.000000
vn 0.000000 1.000000 -0.000000
vn 0.000000 1.000000 -0.000000
vn 0.000000 1.000000 -0.000000
vn 0.000000 1.000000 -0.000000
vn 0.000000 1.000000 -0.000000
vn -0.000000 1.000000 0.000000
vn -0.000000 1.000000 0.000000
vn -0.000000 1.000000 0.000000
vn -0.000000 1.000000 0.000000
vn 0.000000 1.000000 0.000000
vn 0.000000 1.000000 0.000000
vn 0.000000 1.000000 0.000000
vn 0.000000 1.000000 0.000000
vn 0.000001 1.000000 0.000000
vn 0.000001 1.000000 0.000000
vn 0.000001 1.000000 0.000000
vn 0.000001 1.000000 0.000000
vn -0.000000 1.000000 0.000000
vn -0.000000 1.000000 0.000000
vn -0.000000 1.000000 0.000000
vn -0.000000 1.000000 0.000000
vn -0.000000 1.000000 -0.000000
vn -0.000000 1.000000 -0.000000
vn -0.000000 1.000000 -0.000000
vn -0.000000 1.000000 -0.000000
vn 0.000000 1.000000 -0.000000
vn 0.000000 1.000000 -0.000000
vn 0.000000 1.000000 -0.000000
vn 0.000000 1.000000 -0.000000
vn -0.000000 1.000000 -0.000000
vn -0.000000 1.000000 -0.000000
vn -0.000000 1.000000 -0.000000
vn -0.000000 1.000000 -0.000000
vn 0.000000 1.000000 0.000000
vn 0.000000 1.000000 0.000000
vn 0.000000 1.000000 0.000000
vn 0.000000 1.000000 0.000000
vn 0.000000 1.000000 0.000000
vn 0.000000 -1.000000 -0.000000
vn 0.000000 -1.000000 -0.000000
vn 0.000000 -1.000000 -0.000000
vn 0.000000 -1.000000 -0.000000
vn 0.000000 -1.000000 0.000000
vn 0.000000 -1.000000 0.000000
vn 0.000000 -1.000000 0.000000
vn 0.000000 -1.000000 0.000000
vn 0.000000 -1.000000 0.000000
vn 0.000000 -1.000000 0.000000
vn 0.000000 -1.000000 0.000000
vn 0.000000 -1.000000 0.000000
vn 0.000000 -1.000000 -0.000000
vn 0.000000 -1.000000 -0.000000
vn 0.000000 -1.000000 -0.000000
vn 0.000000 -1.000000 -0.000000
vn -0.000000 -1.000000 0.000000
vn -0.000000 -1.000000 0.000000
vn -0.000000 -1.000000 0.000000
vn -0.000000 -1.000000 0.000000
vn 0.000000 -1.000000 -0.000000
vn 0.000000 -1.000000 -0.000000
vn 0.000000 -1.000000 -0.000000
vn 0.000000 -1.000000 -0.000000
vn 0.000000 -1.000000 0.000000
vn 0.000000 -1.000000 0.000000
vn 0.000000 -1.000000 0.000000
vn 0.000000 -1.000000 0.000000
vn 0.000000 -1.000000 0.000000
vn 0.000000 -1.000000 0.000000
vn 0.000000 -1.000000 0.000000
vn 0.000000 -1.000000 0.000000
vn 0.000000 -1.000000 0.000000
vn 0.000000 -1.000000 0.000000
vn 0.000000 -1.000000 0.000000
vn 0.000000 -1.000000 0.000000
vn 0.000000 -1.000000 0.000000
vn 0.000000 -1.000000 0.000000
vn 0.000000 -1.000000 0.000000
vn 0.000000 -1.000000 0.000000
vn 0.000000 -1.000000 0.000000
vn 0.000000 -1.000000 0.000000
vn 0.000000 -1.000000 0.000000
vn 0.000000 -1.000000 0.000000
vn 0.000000 -1.000000 0.000000
vn -0.983704 0.000000 0.179797
vn -0.983704 0.000000 0.179797
vn -0.983704 0.000000 0.179797
vn -0.983704 0.000000 0.179797
vn -0.881136 0.000000 0.472863
vn -0.881136 0.000000 0.472863
vn -0.881136 0.000000 0.472863
vn -0.881136 0.000000 0.472863
vn -0.983704 0.000000 0.179797
vn -0.983704 0.000000 0.179797
vn -0.983704 0.000000 0.179797
vn -0.983704 0.000000 0.179797
vn -0.936159 0.000000 -0.351578
vn -0.936159 0.000000 -0.351578
vn -0.936159 0.000000 -0.351578
vn -0.936159 0.000000 -0.351578
vn 0.830716 0.000000 -0.556696
vn 0.830716 0.000000 -0.556696
vn 0.830716 0.000000 -0.556696
vn 0.830716 0.000000 -0.556696
vn -0.179797 0.000000 -0.983704
vn -0.179797 0.000000 -0.983704
vn -0.179797 0.000000 -0.983704
vn -0.179797 0.000000 -0.983704
vn 0.983704 0.000000 -0.179797
vn 0.983704 0.000000 -0.179797
vn 0.983704 0.000000 -0.179797
vn 0.983704 0.000000 -0.179797
vn -0.901451 0.000000 -0.432882
vn -0.901451 0.000000 -0.432882
vn -0.901451 0.000000 -0.432882
vn -0.901451 0.000000 -0.432882
vn -0.532374 0.000000 -0.846509
vn -0.532374 0.000000 -0.846509
vn -0.532374 0.000000 -0.846509
vn -0.532374 0.000000 -0.846509
vn -0.983704 0.000000 0.179796
vn -0.983704 0.000000 0.179796
vn -0.983704 0.000000 0.179796
vn -0.983704 0.000000 0.179796
vn 0.994909 0.000000 -0.100781
vn 0.994909 0.000000 -0.100781
vn 0.994909 0.000000 -0.100781
vn 0.994909 0.000000 -0.100781
vn -0.881137 0.000000 0.472862
vn -0.881137 0.000000 0.472862
vn -0.881137 0.000000 0.472862
vn -0.881137 0.000000 0.472862
vn 0.986052 0.000000 0.166438
vn 0.986052 0.000000 0.166438
vn 0.986052 0.000000 0.166438
vn 0.986052 0.000000 0.166438
vn -0.999107 0.000000 -0.042258
vn -0.999107 0.000000 -0.042258
vn -0.999107 0.000000 -0.042258
vn -0.999107 0.000000 -0.042258
vn -0.704733 0.000000 0.709473
vn -0.704733 0.000000 0.709473
vn -0.704733 0.000000 0.709473
vn -0.704733 0.000000 0.709473
vn 0.179797 0.000000 0.983704
vn 0.179797 0.000000 0.983704
vn 0.179797 0.000000 0.983704
vn 0.179797 0.000000 0.983704
vn 0.901035 0.000000 0.433745
vn 0.901035 0.000000 0.433745
vn 0.901035 0.000000 0.433745
vn 0.901035 0.000000 0.433745
f 22/20/1 23/43/2 24/44/3 25/15/4
f 26/45/5 27/46/6 25/15/7 24/44/8
f 29/47/9 28/48/10 30/49/11 31/50/12
f 33/19/13 32/51/14 30/49/15 28/48/16
f 22/20/17 33/19/18 28/48/19 34/52/20
f 23/43/21 22/20/22 34/52/23 35/53/24
f 36/9/25 33/19/26 22/20/27 25/15/28
f 38/54/29 37/55/30 36/9/31 39/11/32
f 36/9/33 25/15/34 27/46/35 39/56/36
f 37/55/37 32/51/38 33/19/39 36/9/40
f 38/54/41 39/56/42 40/57/43 41/58/44 42/59/45
f 20/22/46 15/23/47 4/24/48 21/25/49
f 12/26/50 4/24/51 15/23/52 18/27/53
f 14/28/54 2/29/55 3/30/56 13/31/57
f 19/32/58 13/31/59 3/30/60 1/33/61
f 20/22/62 16/34/63 13/31/64 19/32/65
f 21/25/66 17/35/67 16/34/68 20/22/69
f 9/36/70 15/23/71 20/22/72 19/32/73
f 6/37/74 11/38/75 9/36/76 5/39/77
f 9/36/78 11/38/79 18/27/80 15/23/81
f 5/39/82 9/36/83 19/32/84 1/33/85
f 6/37/86 7/40/87 8/41/88 10/42/89 11/38/90
f 21/21/91 4/4/92 24/44/93 23/43/94
f 12/12/95 18/18/96 27/46/97 26/45/98
f 4/4/99 12/12/100 26/45/101 24/44/102
f 14/14/103 13/13/104 28/48/105 29/47/106
f 3/2/107 2/3/108 31/50/109 30/49/110
f 2/3/111 14/14/112 29/47/113 31/50/114
f 1/1/115 3/2/116 30/49/117 32/51/118
f 13/13/119 16/16/120 34/52/121 28/48/122
f 16/16/123 17/17/124 35/53/125 34/52/126
f 17/17/127 21/21/128 23/43/129 35/53/130
f 6/6/131 5/5/132 37/55/133 38/54/134
f 18/18/135 11/11/136 39/56/137 27/46/138
f 5/5/139 1/1/140 32/51/141 37/55/142
f 11/11/143 10/10/144 40/57/145 39/56/146
f 10/10/147 8/8/148 41/58/149 40/57/150
f 8/8/151 7/7/152 42/59/153 41/58/154
f 7/7/155 6/6/156 38/54/157 42/59/158
