# This file uses centimeters as units for non-parametric coordinates.

v -3.256186 0.097964 -5.124382
v -3.922962 0.097964 2.382695
v -1.429471 0.097964 4.451940
v 1.269557 0.097964 5.122124
v 2.999338 0.097964 3.696128
v 4.520224 0.097964 0.207179
v 3.182728 0.097964 -3.611729
v -0.301618 0.097964 -5.124382
v -4.556208 0.097964 -1.912468
v -4.776557 0.097964 0.758403
v -4.556208 1.378964 -1.912468
v -4.776557 1.378964 0.758403
v -3.922962 1.378964 2.382695
v -1.429471 1.378964 4.451940
v 1.269557 1.378964 5.122124
v 2.999338 1.378964 3.696128
v 4.520224 1.378964 0.207179
v 3.182728 1.378964 -3.611729
v -0.301618 1.378964 -5.124382
v -3.256186 1.378964 -5.124382
vt 0.183966 1.000000
vt 0.115247 0.267352
vt 0.372232 0.065406
vt 0.650402 -0.000000
vt 0.828677 0.139169
vt 0.985424 0.479670
vt 0.847578 0.852374
vt 0.488472 1.000000
vt 0.049983 0.686536
vt 0.027273 0.425874
vt 0.079154 0.097861
vt 0.100272 0.097861
vt 0.148267 0.097861
vt 0.204868 0.097861
vt 0.226595 0.097861
vt 0.201890 0.097861
vt 0.173790 0.097861
vt 0.129946 0.097861
vt 0.089441 0.097861
vt 0.075575 0.097861
vt 0.049983 0.686536
vt 0.027273 0.425874
vt 0.115247 0.267352
vt 0.372232 0.065406
vt 0.650402 -0.000000
vt 0.828677 0.139169
vt 0.985424 0.479670
vt 0.847578 0.852374
vt 0.488472 1.000000
vt 0.183966 1.000000
vn 0.000000 1.000000 -0.000000
vn 0.000000 1.000000 -0.000000
vn 0.000000 1.000000 -0.000000
vn 0.000000 1.000000 -0.000000
vn 0.000000 1.000000 -0.000000
vn 0.000000 1.000000 -0.000000
vn 0.000000 1.000000 -0.000000
vn 0.000000 1.000000 -0.000000
vn 0.000000 1.000000 -0.000000
vn 0.000000 1.000000 -0.000000
vn -0.000000 -1.000000 -0.000000
vn -0.000000 -1.000000 -0.000000
vn -0.000000 -1.000000 -0.000000
vn -0.000000 -1.000000 -0.000000
vn -0.000000 -1.000000 -0.000000
vn -0.000000 -1.000000 -0.000000
vn -0.000000 -1.000000 -0.000000
vn -0.000000 -1.000000 -0.000000
vn -0.000000 -1.000000 -0.000000
vn -0.000000 -1.000000 -0.000000
vn -0.968188 0.000000 -0.250223
vn -0.996614 0.000000 -0.082221
vn -0.996614 0.000000 -0.082221
vn -0.968188 0.000000 -0.250223
vn -0.885209 0.000000 0.465193
vn -0.741005 0.000000 0.671499
vn -0.741005 0.000000 0.671499
vn -0.885209 0.000000 0.465193
vn -0.466616 0.000000 0.884460
vn -0.466616 0.000000 0.884460
vn -0.240988 0.000000 0.970528
vn -0.240988 0.000000 0.970528
vn 0.636098 0.000000 0.771608
vn 0.834078 0.000000 0.551646
vn 0.834078 0.000000 0.551646
vn 0.636098 0.000000 0.771608
vn 0.916690 0.000000 0.399599
vn 0.916690 0.000000 0.399599
vn 0.943791 0.000000 -0.330544
vn 0.943791 0.000000 -0.330544
vn 0.943791 0.000000 -0.330544
vn 0.943791 0.000000 -0.330544
vn 0.398221 0.000000 -0.917289
vn 0.228698 0.000000 -0.973498
vn 0.228698 0.000000 -0.973498
vn 0.398221 0.000000 -0.917289
vn 0.000000 0.000000 -1.000000
vn 0.000000 0.000000 -1.000000
vn -0.926951 0.000000 -0.375183
vn -0.926951 0.000000 -0.375183
f 11/21/1 12/22/2 13/23/3 14/24/4 15/25/5 16/26/6 17/27/7 18/28/8 19/29/9 20/30/10
f 9/11/11 1/12/12 8/13/13 7/14/14 6/15/15 5/16/16 4/17/17 3/18/18 2/19/19 10/20/20
f 9/9/21 10/10/22 12/22/23 11/21/24
f 10/10/25 2/2/26 13/23/27 12/22/28
f 2/2/26 3/3/29 14/24/30 13/23/27
f 3/3/29 4/4/31 15/25/32 14/24/30
f 4/4/33 5/5/34 16/26/35 15/25/36
f 5/5/34 6/6/37 17/27/38 16/26/35
f 6/6/39 7/7/40 18/28/41 17/27/42
f 7/7/43 8/8/44 19/29/45 18/28/46
f 8/8/44 1/1/47 20/30/48 19/29/45
f 1/1/49 9/9/21 11/21/24 20/30/50
