# This file uses centimeters as units for non-parametric coordinates.

v 2.196126 -0.009893 -1.481840
v 2.630262 -0.009893 -0.610115
v 2.031989 -0.009893 1.893854
v 0.839323 -0.009893 2.895760
v -1.040548 -0.009893 3.238068
v -2.115877 -0.009893 2.725674
v -2.656464 -0.009893 1.840338
v -2.754558 -0.009893 0.361619
v -2.570113 -0.009893 -2.351704
v -0.848022 -0.009893 -3.177578
v 0.968812 -0.009893 -3.027299
v -2.570113 2.453310 -2.351704
v -0.848022 2.453310 -3.177578
v -2.754558 2.453310 0.361619
v -2.656464 2.453310 1.840338
v -2.115877 2.453310 2.725674
v -1.040548 2.453310 3.238068
v 0.839323 2.453310 2.895760
v 2.031989 2.453310 1.893854
v 2.630262 2.453310 -0.610115
v 2.196126 2.453310 -1.481840
v 0.968812 2.453310 -3.027299
vt 0.850267 0.820764
vt 0.898053 0.820764
vt 0.930334 0.820764
vt 0.941753 0.820764
vt 0.926017 0.820764
vt 0.894648 0.820764
vt 0.845203 0.820764
vt 0.816920 0.820764
vt 0.802702 0.820764
vt 0.800122 0.820764
vt 0.804973 0.820764
vt 0.804973 0.939505
vt 0.850267 0.939505
vt 0.800122 0.939505
vt 0.802702 0.939505
vt 0.816920 0.939505
vt 0.845203 0.939505
vt 0.894648 0.939505
vt 0.926017 0.939505
vt 0.941753 0.939505
vt 0.930334 0.939505
vt 0.898053 0.939505
vt 0.000000 0.357956
vt 0.121884 0.066770
vt 0.540883 0.025951
vt 0.769903 0.036940
vt 0.908656 0.124147
vt 0.991546 0.302201
vt 0.944982 0.618015
vt 0.794079 0.821259
vt 0.408861 0.930555
vt 0.272574 0.861110
vt 0.029402 0.661415
vn -0.000000 1.000000 0.000000
vn -0.000000 1.000000 0.000000
vn -0.000000 1.000000 0.000000
vn -0.000000 1.000000 0.000000
vn -0.000000 1.000000 0.000000
vn -0.000000 1.000000 0.000000
vn -0.000000 1.000000 0.000000
vn -0.000000 1.000000 0.000000
vn -0.000000 1.000000 0.000000
vn -0.000000 1.000000 0.000000
vn -0.000000 1.000000 0.000000
vn 0.000000 -1.000000 -0.000000
vn 0.000000 -1.000000 -0.000000
vn 0.000000 -1.000000 -0.000000
vn 0.000000 -1.000000 -0.000000
vn 0.000000 -1.000000 -0.000000
vn 0.000000 -1.000000 -0.000000
vn 0.000000 -1.000000 -0.000000
vn 0.000000 -1.000000 -0.000000
vn 0.000000 -1.000000 -0.000000
vn 0.000000 -1.000000 -0.000000
vn 0.000000 -1.000000 -0.000000
vn -0.432421 0.000000 -0.901672
vn -0.432421 0.000000 -0.901672
vn -0.432421 0.000000 -0.901672
vn -0.432421 0.000000 -0.901672
vn -0.997697 0.000000 -0.067821
vn -0.997697 0.000000 -0.067821
vn -0.997697 0.000000 -0.067821
vn -0.997697 0.000000 -0.067821
vn -0.997807 0.000000 0.066191
vn -0.997807 0.000000 0.066191
vn -0.997807 0.000000 0.066191
vn -0.997807 0.000000 0.066191
vn -0.853475 0.000000 0.521133
vn -0.853475 0.000000 0.521133
vn -0.853475 0.000000 0.521133
vn -0.853475 0.000000 0.521133
vn -0.430161 0.000000 0.902752
vn -0.430161 0.000000 0.902752
vn -0.430161 0.000000 0.902752
vn -0.430161 0.000000 0.902752
vn 0.179145 0.000000 0.983823
vn 0.179145 0.000000 0.983823
vn 0.179145 0.000000 0.983823
vn 0.179145 0.000000 0.983823
vn 0.643217 0.000000 0.765684
vn 0.643217 0.000000 0.765684
vn 0.643217 0.000000 0.765684
vn 0.643217 0.000000 0.765684
vn 0.972623 0.000000 0.232389
vn 0.972623 0.000000 0.232389
vn 0.972623 0.000000 0.232389
vn 0.972623 0.000000 0.232389
vn 0.895135 0.000000 -0.445795
vn 0.895135 0.000000 -0.445795
vn 0.895135 0.000000 -0.445795
vn 0.895135 0.000000 -0.445795
vn 0.783101 0.000000 -0.621894
vn 0.783101 0.000000 -0.621894
vn 0.783101 0.000000 -0.621894
vn 0.783101 0.000000 -0.621894
vn 0.082434 0.000000 -0.996597
vn 0.082434 0.000000 -0.996597
vn 0.082434 0.000000 -0.996597
vn 0.082434 0.000000 -0.996597
f 13/23/1 12/24/2 14/25/3 15/26/4 16/27/5 17/28/6 18/29/7 19/30/8 20/31/9 21/32/10 22/33/11
f 10/1/12 11/2/13 1/3/14 2/4/15 3/5/16 4/6/17 5/7/18 6/8/19 7/9/20 8/10/21 9/11/22
f 10/1/23 9/11/24 12/12/25 13/13/26
f 9/11/27 8/10/28 14/14/29 12/12/30
f 8/10/31 7/9/32 15/15/33 14/14/34
f 7/9/35 6/8/36 16/16/37 15/15/38
f 6/8/39 5/7/40 17/17/41 16/16/42
f 5/7/43 4/6/44 18/18/45 17/17/46
f 4/6/47 3/5/48 19/19/49 18/18/50
f 3/5/51 2/4/52 20/20/53 19/19/54
f 2/4/55 1/3/56 21/21/57 20/20/58
f 1/3/59 11/2/60 22/22/61 21/21/62
f 11/2/63 10/1/64 13/13/65 22/22/66
