# This file uses centimeters as units for non-parametric coordinates.

v -2.603510 -0.000000 5.014432
v 0.005840 0.000000 -0.031230
v 2.565004 0.000000 5.113381
v -2.596382 -0.000000 5.028764
v 2.565004 0.976883 5.113381
v -2.596382 0.976883 5.028764
v 0.005840 0.976883 -0.031230
v -2.603510 0.976883 5.014432
vt 0.000000 0.000000
vt 0.000000 1.000000
vt 1.000000 1.000000
vt 0.002786 -0.000000
vt 0.002786 -0.000000
vt 1.000000 1.000000
vt 0.000000 1.000000
vt 0.000000 0.000000
vt 0.002786 -0.000000
vt 1.000000 1.000000
vt 0.000000 1.000000
vt 0.000000 0.000000
vn 0.000000 1.000000 -0.000000
vn 0.000000 1.000000 -0.000000
vn 0.000000 1.000000 -0.000000
vn 0.000000 1.000000 -0.000000
vn 0.000000 -1.000000 -0.000000
vn 0.000000 -1.000000 -0.000000
vn 0.000000 -1.000000 -0.000000
vn 0.000000 -1.000000 -0.000000
vn -0.016392 0.000000 0.999866
vn -0.016392 0.000000 0.999866
vn -0.016392 0.000000 0.999866
vn -0.016392 0.000000 0.999866
vn 0.895340 0.000000 -0.445383
vn 0.895340 0.000000 -0.445383
vn 0.895340 0.000000 -0.445383
vn 0.895340 0.000000 -0.445383
vn -0.888252 0.000000 -0.459357
vn -0.888252 0.000000 -0.459357
vn -0.888252 0.000000 -0.459357
vn -0.888252 0.000000 -0.459357
vn -0.895369 0.000000 0.445326
vn -0.895369 0.000000 0.445326
vn -0.895369 0.000000 0.445326
vn -0.895369 0.000000 0.445326
f 6/9/1 5/10/2 7/11/3 8/12/4
f 4/5/5 1/8/6 2/7/7 3/6/8
f 4/4/9 3/3/10 5/10/11 6/9/12
f 3/3/13 2/2/14 7/11/15 5/10/16
f 2/2/17 1/1/18 8/12/19 7/11/20
f 1/1/21 4/4/22 6/9/23 8/12/24
