# This file uses centimeters as units for non-parametric coordinates.

v -1.725981 0.000001 -6.171178
v -4.600760 0.000001 -2.899294
v -3.339530 0.000001 2.397755
v 4.114692 0.000001 5.625577
v -0.203474 0.000001 -4.833456
v 1.270035 0.000001 0.655226
v 0.548127 0.000001 -2.033811
v -0.307946 0.000001 -3.532690
v 1.393043 0.000001 6.555940
v 3.291172 0.000001 6.562853
v -3.970146 0.000001 -0.250770
v -0.964727 0.000001 -5.502317
v -2.454353 0.000001 -3.215992
v -2.080060 0.000001 -0.996652
v -0.828452 0.000001 1.448505
v -0.964727 1.201718 -5.502317
v -2.454353 1.201718 -3.215992
v -1.725981 1.201718 -6.171178
v -4.600760 1.201718 -2.899294
v -2.080060 1.201718 -0.996652
v -0.828452 1.201718 1.448505
v -3.970146 1.201718 -0.250770
v -3.339530 1.201718 2.397755
v 3.291172 1.201718 6.562853
v 1.393043 1.201718 6.555940
v 4.114692 1.201718 5.625577
v 1.270035 1.201718 0.655226
v 0.548127 1.201718 -2.033811
v -0.307946 1.201718 -3.532690
v -0.203474 1.201718 -4.833456
vt 0.161250 0.669314
vt 0.107974 0.669314
vt 0.179329 0.669314
vt 0.198224 0.669314
vt 0.201606 0.669314
vt 0.139279 0.669314
vt 0.123626 0.669314
vt 0.170540 0.669314
vt 0.303860 0.669314
vt 0.256746 0.669314
vt 0.253693 0.669314
vt 0.342784 0.115277
vt 0.324300 0.669314
vt 0.651317 0.468504
vt 0.523033 0.258701
vt 0.235774 0.669314
vt 0.214526 0.669314
vt 0.217119 0.669314
vt 0.179329 0.874756
vt 0.198224 0.874756
vt 0.107974 0.874756
vt 0.139279 0.874756
vt 0.123626 0.874756
vt 0.256746 0.874756
vt 0.303860 0.874756
vt 0.324300 0.874756
vt 0.253693 0.874756
vt 0.235774 0.874756
vt 0.214526 0.874756
vt 0.217119 0.874756
vt 0.000000 0.083239
vt 0.000000 0.000000
vt 0.552792 -0.000000
vt 0.752489 0.182510
vt 0.952186 0.365019
vt 0.952186 0.882498
vt 0.793832 1.000000
vt 0.635477 1.000000
vt 0.399882 0.554985
vt 0.203970 0.364646
vt 0.132775 0.230555
vt 0.000000 0.166477
vn 0.000000 1.000000 0.000000
vn 0.000000 1.000000 0.000000
vn 0.000000 1.000000 0.000000
vn 0.000000 1.000000 0.000000
vn 0.000000 1.000000 -0.000000
vn 0.000000 1.000000 -0.000000
vn 0.000000 1.000000 -0.000000
vn 0.000000 1.000000 -0.000000
vn 0.000000 1.000000 -0.000000
vn 0.000000 1.000000 -0.000000
vn 0.000000 1.000000 -0.000000
vn 0.000000 1.000000 -0.000000
vn 0.000000 1.000000 -0.000000
vn 0.000000 1.000000 -0.000000
vn 0.000000 1.000000 -0.000000
vn 0.000000 1.000000 -0.000000
vn -0.000000 1.000000 0.000000
vn -0.000000 1.000000 0.000000
vn -0.000000 1.000000 0.000000
vn -0.000000 1.000000 0.000000
vn -0.000000 1.000000 0.000000
vn -0.000000 1.000000 0.000000
vn -0.000000 1.000000 0.000000
vn -0.000000 1.000000 0.000000
vn -0.000000 1.000000 0.000000
vn -0.000000 1.000000 0.000000
vn -0.000000 1.000000 0.000000
vn -0.000000 1.000000 0.000000
vn -0.000000 1.000000 0.000000
vn -0.000000 1.000000 0.000000
vn -0.000000 1.000000 0.000000
vn -0.000000 1.000000 0.000000
vn 0.000000 -1.000000 0.000000
vn 0.000000 -1.000000 0.000000
vn 0.000000 -1.000000 0.000000
vn 0.000000 -1.000000 0.000000
vn 0.000000 -1.000000 0.000000
vn 0.000000 -1.000000 0.000000
vn 0.000000 -1.000000 0.000000
vn 0.000000 -1.000000 0.000000
vn 0.000000 -1.000000 0.000000
vn 0.000000 -1.000000 0.000000
vn 0.000000 -1.000000 0.000000
vn 0.000000 -1.000000 0.000000
vn 0.000000 -1.000000 0.000000
vn 0.000000 -1.000000 0.000000
vn 0.000000 -1.000000 0.000000
vn 0.000000 -1.000000 0.000000
vn 0.000000 -1.000000 0.000000
vn 0.000000 -1.000000 0.000000
vn 0.000000 -1.000000 0.000000
vn 0.000000 -1.000000 0.000000
vn -0.000000 -1.000000 -0.000000
vn -0.000000 -1.000000 -0.000000
vn -0.000000 -1.000000 -0.000000
vn -0.000000 -1.000000 -0.000000
vn 0.000000 -1.000000 0.000000
vn 0.000000 -1.000000 0.000000
vn 0.000000 -1.000000 0.000000
vn 0.000000 -1.000000 0.000000
vn 0.000000 -1.000000 0.000000
vn 0.000000 -1.000000 0.000000
vn 0.000000 -1.000000 0.000000
vn 0.000000 -1.000000 0.000000
vn 0.660048 0.000000 -0.751224
vn 0.660048 0.000000 -0.751224
vn 0.660048 0.000000 -0.751224
vn 0.660048 0.000000 -0.751224
vn -0.751223 0.000000 -0.660048
vn -0.751223 0.000000 -0.660048
vn -0.751223 0.000000 -0.660048
vn -0.751223 0.000000 -0.660048
vn -0.972805 0.000000 0.231626
vn -0.972805 0.000000 0.231626
vn -0.972805 0.000000 0.231626
vn -0.972805 0.000000 0.231626
vn -0.660048 0.000000 0.751223
vn -0.660048 0.000000 0.751223
vn -0.660048 0.000000 0.751223
vn -0.660048 0.000000 0.751223
vn -0.003642 0.000000 0.999993
vn -0.003642 0.000000 0.999993
vn -0.003642 0.000000 0.999993
vn -0.003642 0.000000 0.999993
vn -0.972805 0.000000 0.231625
vn -0.972805 0.000000 0.231625
vn -0.972805 0.000000 0.231625
vn -0.972805 0.000000 0.231625
vn 0.751223 0.000000 0.660048
vn 0.751223 0.000000 0.660048
vn 0.751223 0.000000 0.660048
vn 0.751223 0.000000 0.660048
vn 0.867908 0.000000 -0.496725
vn 0.867908 0.000000 -0.496725
vn 0.867908 0.000000 -0.496725
vn 0.867908 0.000000 -0.496725
vn 0.965802 0.000000 -0.259282
vn 0.965802 0.000000 -0.259282
vn 0.965802 0.000000 -0.259282
vn 0.965802 0.000000 -0.259282
vn 0.868350 0.000000 -0.495952
vn 0.868350 0.000000 -0.495952
vn 0.868350 0.000000 -0.495952
vn 0.868350 0.000000 -0.495952
vn 0.996790 0.000000 0.080058
vn 0.996790 0.000000 0.080058
vn 0.996790 0.000000 0.080058
vn 0.996790 0.000000 0.080058
vn 0.660049 0.000000 -0.751223
vn 0.660049 0.000000 -0.751223
vn 0.660049 0.000000 -0.751223
vn 0.660049 0.000000 -0.751223
f 17/12/1 16/31/2 18/32/3 19/33/4
f 21/14/5 20/15/6 22/34/7 23/35/8
f 24/37/9 21/14/10 23/35/11 25/36/12
f 20/15/13 17/12/14 19/33/15 22/34/16
f 21/14/17 24/37/18 26/38/19 27/39/20
f 20/15/21 21/14/22 27/39/23 28/40/24
f 17/12/25 20/15/26 28/40/27 29/41/28
f 16/31/29 17/12/30 29/41/31 30/42/32
f 13/1/33 2/2/34 1/3/35 12/4/36
f 15/5/37 3/6/38 11/7/39 14/8/40
f 10/9/41 9/10/42 3/6/43 15/5/44
f 14/8/45 11/7/46 2/2/47 13/1/48
f 15/5/49 6/11/50 4/13/51 10/9/52
f 14/8/53 7/16/54 6/11/55 15/5/56
f 13/1/57 8/17/58 7/16/59 14/8/60
f 12/4/61 5/18/62 8/17/63 13/1/64
f 12/4/65 1/3/66 18/19/67 16/20/68
f 1/3/69 2/2/70 19/21/71 18/19/72
f 11/7/73 3/6/74 23/22/75 22/23/76
f 3/6/77 9/10/78 25/24/79 23/22/80
f 9/10/81 10/9/82 24/25/83 25/24/84
f 2/2/85 11/7/86 22/23/87 19/21/88
f 10/9/89 4/13/90 26/26/91 24/25/92
f 4/13/93 6/11/94 27/27/95 26/26/96
f 6/11/97 7/16/98 28/28/99 27/27/100
f 7/16/101 8/17/102 29/29/103 28/28/104
f 8/17/105 5/18/106 30/30/107 29/29/108
f 5/18/109 12/4/110 16/20/111 30/30/112
