# This file uses centimeters as units for non-parametric coordinates.

v 4.132526 -0.000000 8.821578
v -4.581902 0.000000 -2.582020
v -3.731165 0.000000 -2.582020
v -2.057083 -0.000000 8.821578
v 0.493424 -0.000000 8.821578
v -4.581902 -0.000000 3.488212
v -4.581902 0.000000 2.932727
v 2.651106 -0.000000 6.495048
v 4.132526 -0.000000 7.291070
v -0.432004 0.000000 3.041426
v 1.893127 -0.000000 3.921494
v -4.581902 -0.000000 6.753030
v -3.737211 -0.000000 7.645057
v -2.623125 -0.000000 8.821578
v -3.180168 -0.000000 8.233318
v 0.227547 -0.000000 4.092663
v 1.311844 -0.000000 3.701477
v -4.581902 -0.000000 5.613772
v -1.706306 0.000000 2.003362
v -2.079990 0.000000 0.300974
v -1.744307 0.000000 0.887085
v -2.998140 0.000000 -1.302138
v -2.458277 0.000000 0.698892
v -2.642277 0.000000 0.016888
v -2.197773 0.000000 0.095322
v 2.651106 0.511875 6.495048
v 4.132526 0.511875 7.291070
v 0.493424 0.511875 8.821578
v 4.132526 0.511875 8.821578
v 1.893127 0.511875 3.921494
v -2.057083 0.511875 8.821578
v 1.311844 0.511875 3.701477
v 0.227547 0.511875 4.092663
v -3.180168 0.511875 8.233318
v -2.623125 0.511875 8.821578
v -0.432004 0.511875 3.041426
v -3.737211 0.511875 7.645057
v -4.581902 0.511875 6.753030
v -1.706306 0.511875 2.003362
v -4.581902 0.511875 5.613772
v -3.731165 0.511875 -2.582020
v -4.581902 0.511875 -2.582020
v -4.581902 0.511875 2.932727
v -2.458277 0.511875 0.698892
v -2.642277 0.511875 0.016888
v -2.998140 0.511875 -1.302138
v -2.079990 0.511875 0.300974
v -2.197773 0.511875 0.095322
v -1.744307 0.511875 0.887085
v -4.581902 0.511875 3.488212
vt 0.916721 0.541617
vt 0.916721 0.541617
vt 0.768193 0.541617
vt 0.856258 0.541617
vt 0.664095 0.541617
vt 0.825321 0.541617
vt 0.640992 0.541617
vt 0.618257 0.541617
vt 0.757341 0.541617
vt 0.801596 0.541617
vt 0.595521 0.541617
vt 0.730422 0.541617
vt 0.561045 0.541617
vt 0.561045 0.541617
vt 0.678412 0.541617
vt 0.595768 0.541617
vt 0.625686 0.541617
vt 0.640211 0.541617
vt 0.647720 0.541617
vt 0.561045 0.541617
vt 0.561045 0.541617
vt 0.243602 0.712291
vt 0.663160 0.541617
vt 0.658353 0.541617
vt 0.676861 0.541617
vt 0.561045 0.541617
vt 0.856258 0.910324
vt 0.916721 0.910324
vt 0.916721 0.910324
vt 0.768193 0.910324
vt 0.825321 0.910324
vt 0.664095 0.910324
vt 0.801596 0.910324
vt 0.757341 0.910324
vt 0.640992 0.910324
vt 0.618257 0.910324
vt 0.730422 0.910324
vt 0.595521 0.910324
vt 0.561045 0.910324
vt 0.678412 0.910324
vt 0.561045 0.910324
vt 0.561045 0.910324
vt 0.595768 0.910324
vt 0.561045 0.910324
vt 0.625686 0.910324
vt 0.640211 0.910324
vt 0.658353 0.910324
vt 0.663160 0.910324
vt 0.676861 0.910324
vt 0.561045 0.910324
vt 0.999636 0.134213
vt 0.829702 0.204017
vt 0.582193 0.000000
vt 0.999636 0.000000
vt 0.742753 0.429696
vt 0.289623 0.000000
vt 0.676074 0.448990
vt 0.551694 0.414686
vt 0.160794 0.051585
vt 0.224692 0.000000
vt 0.476037 0.506871
vt 0.096895 0.103171
vt 0.000000 0.181394
vt 0.329861 0.597900
vt 0.000000 0.281298
vt 0.097588 1.000000
vt 0.000000 1.000000
vt 0.000000 0.516403
vt 0.222495 0.772098
vt 0.181674 0.887765
vt 0.286995 0.747186
vt 0.273484 0.765220
vt 0.325502 0.695789
vt 0.000000 0.467692
vn 0.000000 1.000000 0.000000
vn 0.000000 1.000000 0.000000
vn 0.000000 1.000000 0.000000
vn 0.000000 1.000000 0.000000
vn 0.000000 1.000000 0.000000
vn 0.000000 1.000000 0.000000
vn 0.000000 1.000000 0.000000
vn 0.000000 1.000000 0.000000
vn 0.000000 1.000000 -0.000000
vn 0.000000 1.000000 -0.000000
vn 0.000000 1.000000 -0.000000
vn 0.000000 1.000000 -0.000000
vn 0.000000 1.000000 -0.000000
vn 0.000000 1.000000 -0.000000
vn 0.000000 1.000000 0.000000
vn 0.000000 1.000000 0.000000
vn 0.000000 1.000000 0.000000
vn 0.000000 1.000000 0.000000
vn 0.000000 1.000000 0.000000
vn 0.000000 1.000000 0.000000
vn 0.000000 1.000000 0.000000
vn 0.000000 1.000000 0.000000
vn 0.000000 1.000000 0.000000
vn 0.000000 1.000000 -0.000000
vn 0.000000 1.000000 -0.000000
vn 0.000000 1.000000 -0.000000
vn 0.000000 1.000000 -0.000000
vn 0.000000 1.000000 -0.000000
vn 0.000000 1.000000 -0.000000
vn 0.000000 1.000000 0.000000
vn 0.000000 1.000000 0.000000
vn 0.000000 1.000000 0.000000
vn 0.000000 1.000000 0.000000
vn 0.000000 1.000000 -0.000000
vn 0.000000 1.000000 -0.000000
vn 0.000000 1.000000 -0.000000
vn 0.000000 1.000000 -0.000000
vn 0.000000 1.000000 0.000000
vn 0.000000 1.000000 0.000000
vn 0.000000 1.000000 0.000000
vn 0.000000 1.000000 0.000000
vn 0.000000 1.000000 0.000000
vn -0.000000 -1.000000 -0.000000
vn -0.000000 -1.000000 -0.000000
vn -0.000000 -1.000000 -0.000000
vn -0.000000 -1.000000 -0.000000
vn -0.000000 -1.000000 -0.000000
vn -0.000000 -1.000000 -0.000000
vn -0.000000 -1.000000 -0.000000
vn -0.000000 -1.000000 -0.000000
vn 0.000000 -1.000000 -0.000000
vn 0.000000 -1.000000 -0.000000
vn 0.000000 -1.000000 -0.000000
vn 0.000000 -1.000000 -0.000000
vn 0.000000 -1.000000 -0.000000
vn 0.000000 -1.000000 -0.000000
vn -0.000000 -1.000000 -0.000000
vn -0.000000 -1.000000 -0.000000
vn -0.000000 -1.000000 -0.000000
vn -0.000000 -1.000000 -0.000000
vn 0.000000 -1.000000 -0.000000
vn 0.000000 -1.000000 -0.000000
vn 0.000000 -1.000000 -0.000000
vn 0.000000 -1.000000 -0.000000
vn 0.000000 -1.000000 -0.000000
vn 0.000000 -1.000000 -0.000000
vn 0.000000 -1.000000 -0.000000
vn 0.000000 -1.000000 -0.000000
vn 0.000000 -1.000000 -0.000000
vn 0.000000 -1.000000 -0.000000
vn 0.000000 -1.000000 -0.000000
vn 0.000000 -1.000000 -0.000000
vn 0.000000 -1.000000 -0.000000
vn 0.000000 -1.000000 -0.000000
vn 0.000000 -1.000000 -0.000000
vn -0.000000 -1.000000 -0.000000
vn -0.000000 -1.000000 -0.000000
vn -0.000000 -1.000000 -0.000000
vn -0.000000 -1.000000 -0.000000
vn 0.000000 -1.000000 -0.000000
vn 0.000000 -1.000000 -0.000000
vn 0.000000 -1.000000 -0.000000
vn 0.000000 -1.000000 -0.000000
vn 0.000000 -1.000000 -0.000000
vn 0.473332 0.000000 -0.880884
vn 0.473332 0.000000 -0.880884
vn 0.473332 0.000000 -0.880884
vn 0.473332 0.000000 -0.880884
vn 0.000000 0.000000 1.000000
vn 0.000000 0.000000 1.000000
vn 0.000000 0.000000 1.000000
vn 0.000000 0.000000 1.000000
vn 1.000000 0.000000 0.000000
vn 1.000000 0.000000 0.000000
vn 1.000000 0.000000 0.000000
vn 1.000000 0.000000 0.000000
vn 0.959259 0.000000 -0.282527
vn 0.959259 0.000000 -0.282527
vn 0.959259 0.000000 -0.282527
vn 0.959259 0.000000 -0.282527
vn 0.000000 0.000000 1.000000
vn 0.000000 0.000000 1.000000
vn 0.000000 0.000000 1.000000
vn 0.000000 0.000000 1.000000
vn 0.353994 0.000000 -0.935248
vn 0.353994 0.000000 -0.935248
vn 0.353994 0.000000 -0.935248
vn 0.353994 0.000000 -0.935248
vn -0.339364 0.000000 -0.940655
vn -0.339364 0.000000 -0.940655
vn -0.339364 0.000000 -0.940655
vn -0.339364 0.000000 -0.940655
vn -0.726111 0.000000 0.687578
vn -0.726111 0.000000 0.687578
vn -0.726111 0.000000 0.687578
vn -0.726111 0.000000 0.687578
vn 0.000000 0.000000 1.000000
vn 0.000000 0.000000 1.000000
vn 0.000000 0.000000 1.000000
vn 0.000000 0.000000 1.000000
vn 0.847082 0.000000 -0.531463
vn 0.847082 0.000000 -0.531463
vn 0.847082 0.000000 -0.531463
vn 0.847082 0.000000 -0.531463
vn -0.726111 0.000000 0.687578
vn -0.726111 0.000000 0.687578
vn -0.726111 0.000000 0.687578
vn -0.726111 0.000000 0.687578
vn -0.726110 0.000000 0.687579
vn -0.726110 0.000000 0.687579
vn -0.726110 0.000000 0.687579
vn -0.726110 0.000000 0.687579
vn 0.631579 0.000000 -0.775311
vn 0.631579 0.000000 -0.775311
vn 0.631579 0.000000 -0.775311
vn 0.631579 0.000000 -0.775311
vn -1.000000 0.000000 0.000000
vn -1.000000 0.000000 0.000000
vn -1.000000 0.000000 0.000000
vn -1.000000 0.000000 0.000000
vn 0.000000 0.000000 -1.000000
vn 0.000000 0.000000 -1.000000
vn 0.000000 0.000000 -1.000000
vn 0.000000 0.000000 -1.000000
vn -1.000000 0.000000 0.000000
vn -1.000000 0.000000 0.000000
vn -1.000000 0.000000 0.000000
vn -1.000000 0.000000 0.000000
vn 0.965479 0.000000 -0.260479
vn 0.965479 0.000000 -0.260479
vn 0.965479 0.000000 -0.260479
vn 0.965479 0.000000 -0.260479
vn 0.867757 0.000000 -0.496989
vn 0.867757 0.000000 -0.496989
vn 0.867757 0.000000 -0.496989
vn 0.867757 0.000000 -0.496989
vn 0.867757 0.000000 -0.496989
vn 0.867757 0.000000 -0.496989
vn 0.867757 0.000000 -0.496989
vn 0.867757 0.000000 -0.496989
vn 0.173770 0.000000 -0.984786
vn 0.173770 0.000000 -0.984786
vn 0.173770 0.000000 -0.984786
vn 0.173770 0.000000 -0.984786
vn 0.867756 0.000000 -0.496990
vn 0.867756 0.000000 -0.496990
vn 0.867756 0.000000 -0.496990
vn 0.867756 0.000000 -0.496990
vn 0.999421 0.000000 -0.034023
vn 0.999421 0.000000 -0.034023
vn 0.999421 0.000000 -0.034023
vn 0.999421 0.000000 -0.034023
vn -1.000000 0.000000 0.000000
vn -1.000000 0.000000 0.000000
vn -1.000000 0.000000 0.000000
vn -1.000000 0.000000 0.000000
vn -1.000000 0.000000 0.000000
vn -1.000000 0.000000 0.000000
vn -1.000000 0.000000 0.000000
vn -1.000000 0.000000 0.000000
f 27/51/1 26/52/2 28/53/3 29/54/4
f 26/52/5 30/55/6 31/56/7 28/53/8
f 31/56/9 30/55/10 32/57/11 33/58/12 34/59/13 35/60/14
f 33/58/15 36/61/16 37/62/17 34/59/18
f 38/63/19 37/62/20 36/61/21 39/64/22 40/65/23
f 41/66/24 42/67/25 43/68/26 44/22/27 45/69/28 46/70/29
f 47/71/30 48/72/31 45/69/32 44/22/33
f 49/73/34 47/71/35 44/22/36 39/64/37
f 39/64/38 44/22/39 43/68/40 50/74/41 40/65/42
f 9/1/43 1/2/44 5/3/45 8/4/46
f 8/4/47 5/3/48 4/5/49 11/6/50
f 4/5/51 14/7/52 15/8/53 16/9/54 17/10/55 11/6/56
f 16/9/57 15/8/58 13/11/59 10/12/60
f 12/13/61 18/14/62 19/15/63 10/12/64 13/11/65
f 3/16/66 22/17/67 24/18/68 23/19/69 7/20/70 2/21/71
f 20/23/72 23/19/73 24/18/74 25/24/75
f 21/25/76 19/15/77 23/19/78 20/23/79
f 19/15/80 18/14/81 6/26/82 7/20/83 23/19/84
f 9/1/85 8/4/86 26/27/87 27/28/88
f 5/3/89 1/2/90 29/29/91 28/30/92
f 1/2/93 9/1/94 27/28/95 29/29/96
f 8/4/97 11/6/98 30/31/99 26/27/100
f 4/5/101 5/3/102 28/30/103 31/32/104
f 11/6/105 17/10/106 32/33/107 30/31/108
f 17/10/109 16/9/110 33/34/111 32/33/112
f 15/8/113 14/7/114 35/35/115 34/36/116
f 14/7/117 4/5/118 31/32/119 35/35/120
f 16/9/121 10/12/122 36/37/123 33/34/124
f 13/11/125 15/8/126 34/36/127 37/38/128
f 12/13/129 13/11/130 37/38/131 38/39/132
f 10/12/133 19/15/134 39/40/135 36/37/136
f 18/14/137 12/13/138 38/39/139 40/41/140
f 3/16/141 2/21/142 42/42/143 41/43/144
f 2/21/145 7/20/146 43/44/147 42/42/148
f 24/18/149 22/17/150 46/45/151 45/46/152
f 22/17/153 3/16/154 41/43/155 46/45/156
f 20/23/157 25/24/158 48/47/159 47/48/160
f 25/24/161 24/18/162 45/46/163 48/47/164
f 21/25/165 20/23/166 47/48/167 49/49/168
f 19/15/169 21/25/170 49/49/171 39/40/172
f 7/20/173 6/26/174 50/50/175 43/44/176
f 6/26/177 18/14/178 40/41/179 50/50/180
